{"title":"[OOTR] Naruto Shippuuden Episodes 178-222 MANGA EDIT","uid":10697209,"size":9760213306,"categoryP":"video","categoryS":"tv_shows","magnet":"?xt=urn:btih:1d5540ba4020c614aa4a97fdd24fd05f533d2590&amp;dn=%5BOOTR%5D+Naruto+Shippuuden+Episodes+178-222+MANGA+EDIT&amp;tr=udp%3A%2F%2Ftracker.openbittorrent.com%3A80&amp;tr=udp%3A%2F%2Fopen.demonii.com%3A1337&amp;tr=udp%3A%2F%2Ftracker.coppersurfer.tk%3A6969&amp;tr=udp%3A%2F%2Fexodus.desync.com%3A6969","seeders":2,"leechers":0,"uploader":"OOTR","files":-1,"time":1407184593,"description":"[OOTR]\n\n\n\n\n\nNaruto Shippuuden Episodes 178-222\n\n\n\n\n\nEdited to follow Manga, panel for panel.  All intros/credits removed for seamless transitions between episodes.\n\n\n\n\nFormat                                   : MPEG-4\nFormat profile                           : Base Media / Version 2\nCodec ID                                 : mp42\nFile size                                : 9.09 GiB\nDuration                                 : 6h 32mn\nOverall bit rate                         : 3 316 Kbps\n\nVideo\nID                                       : 1\nFormat                                   : AVC\nFormat/Info                              : Advanced Video Codec\nFormat profile                           : &lt;a class=&quot;__cf_email__&quot; href=&quot;/cdn-cgi/l/email-protection&quot; data-cfemail=&quot;2f674648476f631a011e&quot;&gt;[email&amp;#160;protected]&lt;/a&gt;&lt;script cf-hash='f9e31' type=&quot;text/javascript&quot;&gt;\n/* &lt;![CDATA[ */!function(){try{var t=&quot;currentScript&quot;in document?document.currentScript:function(){for(var t=document.getElementsByTagName(&quot;script&quot;),e=t.length;e--;)if(t[e].getAttribute(&quot;cf-hash&quot;))return t[e]}();if(t&amp;&amp;t.previousSibling){var e,r,n,i,c=t.previousSibling,a=c.getAttribute(&quot;data-cfemail&quot;);if(a){for(e=&quot;&quot;,r=parseInt(a.substr(0,2),16),n=2;a.length-n;n+=2)i=parseInt(a.substr(n,2),16)^r,e+=String.fromCharCode(i);e=document.createTextNode(e),c.parentNode.replaceChild(e,c)}}}catch(u){}}();/* ]]&gt; */&lt;/script&gt;\nFormat settings, CABAC                   : Yes\nFormat settings, ReFrames                : 3 frames\nCodec ID                                 : avc1\nCodec ID/Info                            : Advanced Video Coding\nDuration                                 : 6h 32mn\nBit rate                                 : 2 995 Kbps\nWidth                                    : 1 280 pixels\nHeight                                   : 720 pixels\nDisplay aspect ratio                     : 16:9\nFrame rate mode                          : Variable\nFrame rate                               : 23.976 fps\nStandard                                 : NTSC\nColor space                              : YUV\nChroma subsampling                       : 4:2:0\nBit depth                                : 8 bits\nScan type                                : Progressive\nBits/(Pixel*Frame)                       : 0.136\nStream size                              : 8.21 GiB (90%)\nColor primaries                          : BT.709\n\n\nAudio\nFormat                                   : AAC\nFormat/Info                              : Advanced Audio Codec\nFormat profile                           : LC\nCodec ID                                 : 40\nDuration                                 : 6h 32mn\nBit rate mode                            : Constant\nBit rate                                 : 318 Kbps\nChannel(s)                               : 2 channels\nChannel positions                        : Front: L R\nSampling rate                            : 44.1 KHz\nCompression mode                         : Lossy\nStream size                              : 891 MiB (10%)\n\n\n","torrent":{"xt":"urn:btih:1d5540ba4020c614aa4a97fdd24fd05f533d2590","amp;dn":"%5BOOTR%5D+Naruto+Shippuuden+Episodes+178-222+MANGA+EDIT","amp;tr":["udp%3A%2F%2Ftracker.openbittorrent.com%3A80","udp%3A%2F%2Fopen.demonii.com%3A1337","udp%3A%2F%2Ftracker.coppersurfer.tk%3A6969","udp%3A%2F%2Fexodus.desync.com%3A6969"],"infoHash":"1d5540ba4020c614aa4a97fdd24fd05f533d2590","infoHashBuffer":{"type":"Buffer","data":[29,85,64,186,64,32,198,20,170,74,151,253,210,79,208,95,83,61,37,144]},"announce":[],"urlList":[]}}